<?xml version="1.0" encoding="UTF-8"?>
<svg width="98px" height="22px" viewBox="0 0 98 22" version="1.1" xmlns="http://www.w3.org/2000/svg" xmlns:xlink="http://www.w3.org/1999/xlink">
    <!-- Generator: Sketch 55.2 (78181) - https://sketchapp.com -->
    <title>logo@2x</title>
    <desc>Created with Sketch.</desc>
    <g id="Symbols" stroke="none" stroke-width="1" fill="none" fill-rule="evenodd">
        <g id="Component-/-navigation-bar-/-PC-/-logged-out" transform="translate(-137.000000, -30.000000)" fill-rule="nonzero">
            <g id="top_nav">
                <g id="logo" transform="translate(137.848633, 30.533203)">
                    <path d="M13.6035156,8.73632812 L10.8691406,11.484375 C10.7324212,11.1015606 10.5455741,10.7574885 10.3085938,10.4521484 C10.0716134,10.1468084 9.8050145,9.88932396 9.50878906,9.6796875 C9.21256362,9.47005104 8.89127777,9.31054742 8.54492188,9.20117188 C8.19856598,9.09179633 7.84310078,9.03710938 7.47851563,9.03710938 C6.96809641,9.03710938 6.48730694,9.14192604 6.03613281,9.3515625 C5.58495868,9.56119896 5.19303552,9.85514134 4.86035156,10.2333984 C4.52766761,10.6116555 4.26562596,11.0605443 4.07421875,11.5800781 C3.88281154,12.099612 3.78710938,12.673825 3.78710938,13.3027344 C3.78710938,13.8131536 3.88281154,14.2916644 4.07421875,14.7382812 C4.26562596,15.1848981 4.52766761,15.5768212 4.86035156,15.9140625 C5.19303552,16.2513038 5.58495868,16.515624 6.03613281,16.7070312 C6.48730694,16.8984385 6.96809641,16.9941406 7.47851563,16.9941406 C7.84310078,16.9941406 8.19400873,16.9440109 8.53125,16.84375 C8.86849127,16.7434891 9.18521987,16.5999358 9.48144531,16.4130859 C9.77767075,16.226236 10.041991,15.9983737 10.2744141,15.7294922 C10.5068371,15.4606106 10.6959628,15.162111 10.8417969,14.8339844 L13.5761719,17.5820312 C13.229816,18.0742212 12.8310569,18.5162741 12.3798828,18.9082031 C11.9287087,19.3001322 11.4410833,19.6328111 10.9169922,19.90625 C10.392901,20.1796889 9.84147425,20.3870436 9.26269531,20.5283203 C8.68391638,20.6695971 8.08919576,20.7402344 7.47851563,20.7402344 C6.44856256,20.7402344 5.48014776,20.5465514 4.57324219,20.1591797 C3.66633661,19.771808 2.87337579,19.2408888 2.19433594,18.5664062 C1.51529608,17.8919237 0.979819668,17.1035201 0.587890625,16.2011719 C0.195961582,15.2988236 2.43005616e-12,14.3326874 2.43005616e-12,13.3027344 C2.43005616e-12,12.181635 0.195961582,11.1334684 0.587890625,10.1582031 C0.979819668,9.18293783 1.51529608,8.33301144 2.19433594,7.60839844 C2.87337579,6.88378544 3.66633661,6.31185105 4.57324219,5.89257812 C5.48014776,5.4733052 6.44856256,5.26367188 7.47851563,5.26367188 C8.08919576,5.26367188 8.68847362,5.34114506 9.27636719,5.49609375 C9.86426075,5.65104244 10.424802,5.87662612 10.9580078,6.17285156 C11.4912136,6.469077 11.9833962,6.83137807 12.4345703,7.25976562 C12.8857444,7.68815318 13.275389,8.18033576 13.6035156,8.73632812 Z M30.547526,20.4667969 L29.6451823,20.4667969 L28.1959635,18.4570312 C27.840493,18.7760433 27.4645202,19.0745429 27.0680339,19.3525391 C26.6715475,19.6305352 26.2545595,19.8720693 25.8170573,20.0771484 C25.3795551,20.2822276 24.9306664,20.4440098 24.4703776,20.5625 C24.0100888,20.6809902 23.5429711,20.7402344 23.0690104,20.7402344 C22.0390574,20.7402344 21.0706426,20.567059 20.163737,20.2207031 C19.2568314,19.8743472 18.4638706,19.3707715 17.7848307,18.7099609 C17.1057909,18.0491503 16.5703145,17.2402392 16.1783854,16.2832031 C15.7864564,15.3261671 15.5904948,14.2369853 15.5904948,13.015625 C15.5904948,11.8762964 15.7864564,10.8304084 16.1783854,9.87792969 C16.5703145,8.92545097 17.1057909,8.10742529 17.7848307,7.42382812 C18.4638706,6.74023096 19.2568314,6.20931179 20.163737,5.83105469 C21.0706426,5.45279759 22.0390574,5.26367188 23.0690104,5.26367188 C23.5429711,5.26367188 24.0123675,5.32291607 24.4772135,5.44140625 C24.9420596,5.55989643 25.393227,5.72395729 25.8307292,5.93359375 C26.2682314,6.14323021 26.6852194,6.3893215 27.0817057,6.671875 C27.4781921,6.9544285 27.8496076,7.25976398 28.1959635,7.58789062 L29.6451823,5.8515625 L30.547526,5.8515625 L30.547526,20.4667969 Z M26.7877604,13.015625 C26.7877604,12.5052058 26.6897796,12.0107446 26.4938151,11.5322266 C26.2978506,11.0537085 26.0312517,10.6298847 25.6940104,10.2607422 C25.3567691,9.89159972 24.9625674,9.59537872 24.5113932,9.37207031 C24.0602191,9.1487619 23.5794296,9.03710938 23.0690104,9.03710938 C22.5585912,9.03710938 22.0778017,9.12369705 21.6266276,9.296875 C21.1754535,9.47005295 20.7835303,9.72525873 20.4508464,10.0625 C20.1181624,10.3997413 19.8561207,10.8167293 19.6647135,11.3134766 C19.4733063,11.8102238 19.3776042,12.377601 19.3776042,13.015625 C19.3776042,13.653649 19.4733063,14.2210262 19.6647135,14.7177734 C19.8561207,15.2145207 20.1181624,15.6315087 20.4508464,15.96875 C20.7835303,16.3059913 21.1754535,16.5611971 21.6266276,16.734375 C22.0778017,16.9075529 22.5585912,16.9941406 23.0690104,16.9941406 C23.5794296,16.9941406 24.0602191,16.8824881 24.5113932,16.6591797 C24.9625674,16.4358713 25.3567691,16.1396503 25.6940104,15.7705078 C26.0312517,15.4013653 26.2978506,14.9775415 26.4938151,14.4990234 C26.6897796,14.0205054 26.7877604,13.5260442 26.7877604,13.015625 Z M41.8997396,20.4667969 C40.9973913,20.4667969 40.1497435,20.2959001 39.3567708,19.9541016 C38.5637981,19.612303 37.8688181,19.1429066 37.2718099,18.5458984 C36.6748017,17.9488902 36.2054054,17.2539102 35.8636068,16.4609375 C35.5218082,15.6679648 35.3509115,14.820317 35.3509115,13.9179688 L35.3509115,9.5703125 L33.5325521,9.5703125 L33.5325521,5.8515625 L35.3509115,5.8515625 L35.3509115,0 L39.0696615,0 L39.0696615,5.8515625 L44.7298177,5.8515625 L44.7298177,9.5703125 L39.0696615,9.5703125 L39.0696615,13.9179688 C39.0696615,14.3098978 39.1425774,14.6767561 39.2884115,15.0185547 C39.4342455,15.3603533 39.6347643,15.6588529 39.889974,15.9140625 C40.1451836,16.1692721 40.4459618,16.3720696 40.7923177,16.5224609 C41.1386736,16.6728523 41.5078105,16.7480469 41.8997396,16.7480469 L44.7298177,16.7480469 L44.7298177,20.4667969 L41.8997396,20.4667969 Z M60.7851563,8.73632812 L58.0507813,11.484375 C57.9140618,11.1015606 57.7272147,10.7574885 57.4902344,10.4521484 C57.253254,10.1468084 56.9866551,9.88932396 56.6904297,9.6796875 C56.3942042,9.47005104 56.0729184,9.31054742 55.7265625,9.20117188 C55.3802066,9.09179633 55.0247414,9.03710938 54.6601563,9.03710938 C54.149737,9.03710938 53.6689476,9.14192604 53.2177734,9.3515625 C52.7665993,9.56119896 52.3746761,9.85514134 52.0419922,10.2333984 C51.7093082,10.6116555 51.4472666,11.0605443 51.2558594,11.5800781 C51.0644522,12.099612 50.96875,12.673825 50.96875,13.3027344 C50.96875,13.8131536 51.0644522,14.2916644 51.2558594,14.7382812 C51.4472666,15.1848981 51.7093082,15.5768212 52.0419922,15.9140625 C52.3746761,16.2513038 52.7665993,16.515624 53.2177734,16.7070312 C53.6689476,16.8984385 54.149737,16.9941406 54.6601563,16.9941406 C55.0247414,16.9941406 55.3756494,16.9440109 55.7128906,16.84375 C56.0501319,16.7434891 56.3668605,16.5999358 56.6630859,16.4130859 C56.9593114,16.226236 57.2236317,15.9983737 57.4560547,15.7294922 C57.6884777,15.4606106 57.8776034,15.162111 58.0234375,14.8339844 L60.7578125,17.5820312 C60.4114566,18.0742212 60.0126976,18.5162741 59.5615234,18.9082031 C59.1103493,19.3001322 58.622724,19.6328111 58.0986328,19.90625 C57.5745417,20.1796889 57.0231149,20.3870436 56.4443359,20.5283203 C55.865557,20.6695971 55.2708364,20.7402344 54.6601563,20.7402344 C53.6302032,20.7402344 52.6617884,20.5465514 51.7548828,20.1591797 C50.8479772,19.771808 50.0550164,19.2408888 49.3759766,18.5664062 C48.6969367,17.8919237 48.1614603,17.1035201 47.7695313,16.2011719 C47.3776022,15.2988236 47.1816406,14.3326874 47.1816406,13.3027344 C47.1816406,12.181635 47.3776022,11.1334684 47.7695313,10.1582031 C48.1614603,9.18293783 48.6969367,8.33301144 49.3759766,7.60839844 C50.0550164,6.88378544 50.8479772,6.31185105 51.7548828,5.89257812 C52.6617884,5.4733052 53.6302032,5.26367188 54.6601563,5.26367188 C55.2708364,5.26367188 55.8701142,5.34114506 56.4580078,5.49609375 C57.0459014,5.65104244 57.6064426,5.87662612 58.1396484,6.17285156 C58.6728542,6.469077 59.1650368,6.83137807 59.6162109,7.25976562 C60.0673851,7.68815318 60.4570296,8.18033576 60.7851563,8.73632812 Z M67.5026042,20.4667969 L63.7701823,20.4667969 L63.7701823,0 L67.5026042,0 L67.5026042,6.46679688 C67.949221,6.12955561 68.4095028,5.89030019 68.8834635,5.74902344 C69.3574242,5.60774669 69.8404923,5.53710938 70.3326823,5.53710938 C71.2350306,5.53710938 72.0826783,5.7080061 72.875651,6.04980469 C73.6686238,6.39160327 74.3590465,6.86099962 74.9469401,7.45800781 C75.5348337,8.05501601 75.9996728,8.75227466 76.3414714,9.54980469 C76.6832699,10.3473347 76.8541667,11.1972611 76.8541667,12.0996094 L76.8541667,20.4667969 L73.094401,20.4667969 L73.094401,12.0996094 L73.1217448,12.0996094 C73.1217448,11.716795 73.0488289,11.3544939 72.9029948,11.0126953 C72.7571607,10.6708967 72.5566419,10.3723971 72.3014323,10.1171875 C72.0462227,9.86197789 71.7500017,9.66145906 71.4127604,9.515625 C71.0755191,9.36979094 70.7154967,9.296875 70.3326823,9.296875 C69.9407532,9.296875 69.5716163,9.36979094 69.2252604,9.515625 C68.8789045,9.66145906 68.5781263,9.86197789 68.3229167,10.1171875 C68.0677071,10.3723971 67.8671882,10.6708967 67.7213542,11.0126953 C67.5755201,11.3544939 67.5026042,11.716795 67.5026042,12.0996094 L67.5026042,20.4667969 Z" id="catch" fill="#383838"></path>
                    <polygon id="K" fill="#F04860" points="84.9934896 20.4667969 81.0696615 20.4667969 81.0696615 0.861328125 84.9934896 0.861328125 84.9934896 10.6640625 92.2942708 0.861328125 96.7513021 0.861328125 90.5579427 9.1328125 96.7513021 20.4667969 92.2942708 20.4667969 87.9876302 12.5371094 84.9934896 16.5429688"></polygon>
                </g>
            </g>
        </g>
    </g>
</svg>