<?xml version="1.0" encoding="UTF-8"?>
<svg width="18px" height="18px" viewBox="0 0 18 18" version="1.1" xmlns="http://www.w3.org/2000/svg" xmlns:xlink="http://www.w3.org/1999/xlink">
    <!-- Generator: Sketch 55.2 (78181) - https://sketchapp.com -->
    <title>ic_pending</title>
    <desc>Created with Sketch.</desc>
    <defs>
        <path d="M9.99166667,1.66666667 C5.39166667,1.66666667 1.66666667,5.4 1.66666667,10 C1.66666667,14.6 5.39166667,18.3333333 9.99166667,18.3333333 C14.6,18.3333333 18.3333333,14.6 18.3333333,10 C18.3333333,5.4 14.6,1.66666667 9.99166667,1.66666667 Z M10,16.6666667 C6.31666667,16.6666667 3.33333333,13.6833333 3.33333333,10 C3.33333333,6.31666667 6.31666667,3.33333333 10,3.33333333 C13.6833333,3.33333333 16.6666667,6.31666667 16.6666667,10 C16.6666667,13.6833333 13.6833333,16.6666667 10,16.6666667 Z" id="path-1"></path>
        <polygon id="path-3" points="10.4166667 5.83333333 9.16666667 5.83333333 9.16666667 10.8333333 13.5416667 13.4583333 14.1666667 12.4333333 10.4166667 10.2083333"></polygon>
    </defs>
    <g id="Page_GUI" stroke="none" stroke-width="1" fill="none" fill-rule="evenodd">
        <g id="3.1-News-Article-PC" transform="translate(-386.000000, -549.000000)">
            <g id="Group" transform="translate(369.000000, 534.000000)">
                <g id="Buttons-/-Outlined-/-with-Icon-/-Disabled">
                    <g id="Icon-/-Access-Time-/-Filled" transform="translate(15.967213, 14.000000)">
                        <mask id="mask-2" fill="white">
                            <use xlink:href="#path-1"></use>
                        </mask>
                        <g id="Mask" fill-rule="nonzero"></g>
                        <g id="✱-/-Color-/-Icons-/-Selected-/-On-Surface-/-Inactive" mask="url(#mask-2)" fill="#000000" fill-opacity="0.54" fill-rule="evenodd">
                            <rect id="Rectangle" x="0" y="0" width="20" height="20"></rect>
                        </g>
                        <mask id="mask-4" fill="white">
                            <use xlink:href="#path-3"></use>
                        </mask>
                        <g id="Shape" fill-rule="nonzero"></g>
                        <g id="✱-/-Color-/-Icons-/-Selected-/-On-Surface-/-Inactive" mask="url(#mask-4)" fill="#000000" fill-opacity="0.54" fill-rule="evenodd">
                            <rect id="Rectangle" x="0" y="0" width="20" height="20"></rect>
                        </g>
                    </g>
                </g>
            </g>
        </g>
    </g>
</svg>